<svg xmlns="http://www.w3.org/2000/svg" viewBox="0 0 920 700">
  <defs>
    <linearGradient id="bg" x1="0" x2="1" y1="0" y2="1"><stop offset="0" stop-color="#063d62"/><stop offset="1" stop-color="#014D81"/></linearGradient>
    <linearGradient id="orange" x1="0" x2="1"><stop offset="0" stop-color="#E96711"/><stop offset="1" stop-color="#ff8b3d"/></linearGradient>
    <filter id="shadow" x="-20%" y="-20%" width="140%" height="140%"><feDropShadow dx="0" dy="18" stdDeviation="18" flood-color="#001f34" flood-opacity=".25"/></filter>
  </defs>
  <rect width="920" height="700" rx="44" fill="url(#bg)"/>
  <g opacity=".13" stroke="#fff" fill="none"><path d="M0 108h920M0 216h920M0 324h920M0 432h920M0 540h920M115 0v700M230 0v700M345 0v700M460 0v700M575 0v700M690 0v700M805 0v700"/><circle cx="744" cy="118" r="210"/><circle cx="744" cy="118" r="150"/></g>
  <g filter="url(#shadow)"><rect x="150" y="118" width="610" height="190" rx="30" fill="#fff"/><rect x="184" y="154" width="540" height="30" rx="15" fill="#d8e4eb"/><rect x="184" y="207" width="488" height="13" rx="6" fill="#eef4f7"/><rect x="184" y="237" width="488" height="13" rx="6" fill="#eef4f7"/><circle cx="704" cy="270" r="8" fill="#E96711"/></g>
  <g transform="translate(170 390)"><path d="M0 78h188l38-66h178l35 66h188" fill="none" stroke="#eaf7ff" stroke-width="14" stroke-linecap="round" stroke-linejoin="round"/><circle cx="95" cy="78" r="46" fill="#fff" opacity=".96"/><path d="M77 82l18-38 18 38-18 26z" fill="url(#orange)"/><circle cx="530" cy="78" r="46" fill="#fff" opacity=".96"/><path d="M510 78h40M530 58v40" stroke="#014D81" stroke-width="9" stroke-linecap="round"/><rect x="255" y="0" width="116" height="156" rx="18" fill="#fff"/><path d="M279 30h68M279 58h68M279 86h68M279 114h38" stroke="#014D81" stroke-width="9" stroke-linecap="round"/><circle cx="342" cy="126" r="8" fill="#E96711"/></g>
  <g transform="translate(72 74)"><rect width="182" height="54" rx="27" fill="#E96711"/><text x="91" y="35" text-anchor="middle" font-family="Arial,sans-serif" font-size="20" font-weight="700" fill="#fff">CAPE • TÉCNICA</text></g>
</svg>
